# xmcd
#
# Track frame offsets:
#	150
#	14040
#	27252
#	39605
#	50217
#	64215
#	77625
#	92187
#	109570
#	126215
#	143025
#	150875
#	166045
#	177400
#
# Disc length: 2544 seconds
#
# Revision: 1
# Processed by: cddbd v1.5.2PL0 Copyright (c) Steve Scherf et al.
# Submitted via: EasyCDDAExtractor 16.0.8.2
#
DISCID=b509ee0e
DTITLE=Various Artist - Modas de Viola
DYEAR=1900
DGENRE=Country
TTITLE0=Saudade da minha terra - Liu and Leo
TTITLE1=Peao de boiadeiro - Vieira e Vieirinha
TTITLE2=Alma de caboclo - Moreno and Moreninho
TTITLE3=Baile na roça - Tonico and Tinoco
TTITLE4=Capela - Zico and Zeca
TTITLE5=Vestido de seda - Teodoro and Sampaio
TTITLE6=Berrante de Madalena - Silveira and Silveirinha
TTITLE7=Magoa de boiadeiro - Pedro Bento, Ze da Estrada e Celinho
TTITLE8=Terra tombada - Chitaozinho and Xororo
TTITLE9=Porta do mundo - Peao Carreiro and Ze Paulo
TTITLE10=Bosque das andorinhas - Caçula and Marinheiro
TTITLE11=Velho catireiro - Leoncio and Leonel
TTITLE12=A sanfona e o violao - Ze Fortuna and Pitangueira
TTITLE13=Dê amor a quem te ama - Nenete and Dorinho
EXTD=
EXTT0=
EXTT1=
EXTT2=
EXTT3=
EXTT4=
EXTT5=
EXTT6=
EXTT7=
EXTT8=
EXTT9=
EXTT10=
EXTT11=
EXTT12=
EXTT13=
PLAYORDER=
